<?xml version="1.0" encoding="UTF-8"?>
<svg id="Layer_1" xmlns="http://www.w3.org/2000/svg" version="1.1" viewBox="0 0 979.66 952.92">
  <!-- Generator: Adobe Illustrator 30.5.1, SVG Export Plug-In . SVG Version: 2.1.4 Build 3)  -->
  <defs>
    <style>
      .st0 {
        fill: #0E3D3D;
      }

      .st1 {
        fill: #F7F4ED;
      }

      .st2 {
        fill: #F7F4ED;
      }

      .st3 {
        fill: #F7F4ED;
      }
    </style>
  </defs>
  <path class="st3" d="M823.02,4.57c0-2.52-2.04-4.57-4.57-4.57s-4.57,2.04-4.57,4.57,2.04,4.57,4.57,4.57,4.57-2.04,4.57-4.57ZM818.49,153.28l8.45-44.28,29.05,19.87-20.05-28.94,41.57-8.7-41.93-8.48,20.51-28.86-29.25,20.13-8.43-44.82-8.49,44.45-28.73-19.3,19.95,28.64-41.37,8.38,41.75,8.39-20.2,29.09,28.59-19.63,8.58,44.04ZM746.44,91.22c0-2.54-2.06-4.6-4.6-4.6s-4.6,2.06-4.6,4.6,2.06,4.6,4.6,4.6,4.6-2.06,4.6-4.6ZM899.5,91.3c0-2.55-2.06-4.61-4.61-4.61s-4.61,2.06-4.61,4.61,2.06,4.61,4.61,4.61,4.61-2.06,4.61-4.61ZM527.72,534.15c23.35,30.86,13.66,72.39-1.65,107.48,12.9,5.09,27.13,5.58,40.77,3.19-.95-31.62-9.51-59.19-21.81-88.61,19.24,25.83,30.58,57.32,37.03,90.18,19.58.2,66.12-14.46,67.61-20.4.27-1.07-.25-4-.79-5.19-18.32-40.97-27.52-84.7-25.81-129.86,1.76-46.31,18.71-103.85,65.14-122.28l-31.6-18.17c8.95-5.75,19.05-3.06,27.17,1.63,27.09,15.68,56.47,23.55,87.61,19.27,44.95-6.17,79.02-38.5,87.32-83.29,11.87-64.03-29.51-120.44-41.53-115.78-4.62,1.79-5.32,13.99-1.14,23.26,6.28,13.95,11.58,27.54,13.72,42.79,6.24,44.55-15.87,89.65-60.64,92.28-18.54,1.09-35.71-8.43-40.87-26.23l-8.88-30.63c-4.77-16.46-9.91-31.93-18.46-46.77-16.72-29.02-43.08-49.25-75.87-57.74-50.23-13-117.96-1.08-149.61,40.81-36.31,48.05-15.63,118.53,30.79,150.61l36.91,25.51c13.28,9.18,24.51,19.48,34.53,33.36,24.11-38.64,28.05-85.58,10.9-126.82-5.82-14-14.38-24.71-24.03-37.02,8.18,2.01,13.64,8.01,18.48,14.12,38.07,48.11,34.4,123.27-5.55,171.22-9.21-14.54-18.16-27.27-31.5-36.43l-34.5-23.69c-37.85-25.12-64.14-59.37-66.95-106.66-41.6,6.88-79.56,24.65-108.32,54.7-23.53,24.59-40.56,53.31-52.33,85.29-10.62,28.87-19.07,59.83-15.04,91.29,7.85-26.59,10.51-51.48,28.37-72.55l-1.67,49.34c-.65,19.19-.15,37.54-2.08,56.6-2.91,28.59-13.24,53.62-29.84,78.23,24.67,14.91,49.74,24.17,76.94,28.98,2.99.53,5.53-3.88,5.88-6.44,6.99-49.73,35.91-103.04,80.16-126.67,34.43-18.38,77-10.8,101.13,21.09ZM416.11,638.35c-17.06-36.96-17.68-71.26-3.59-108.79-18.83,14.81-29.82,33.99-38.58,54.4-7.53,19.73-12.34,39.58-13.58,60.85,20.85,3.28,60.77,4.41,55.75-6.46Z"/>
  <path class="st2" d="M527.72,534.15c-24.13-31.89-66.71-39.47-101.13-21.09-44.26,23.63-73.18,76.94-80.16,126.67-.36,2.55-2.9,6.97-5.88,6.44-27.2-4.8-52.27-14.07-76.94-28.98,16.6-24.61,26.94-49.64,29.84-78.23,1.94-19.06,1.43-37.41,2.08-56.6l1.67-49.34c-17.86,21.07-20.52,45.96-28.37,72.55-4.03-31.46,4.42-62.42,15.04-91.29,11.77-31.98,28.79-60.7,52.33-85.29,28.76-30.05,66.72-47.82,108.32-54.7,2.81,47.29,29.1,81.54,66.95,106.66l34.5,23.69c13.34,9.16,22.29,21.89,31.5,36.43,39.95-47.95,43.62-123.12,5.55-171.22-4.83-6.11-10.29-12.11-18.48-14.12,9.65,12.31,18.2,23.02,24.03,37.02,17.15,41.24,13.21,88.18-10.9,126.82-10.02-13.88-21.25-24.18-34.53-33.36l-36.91-25.51c-46.43-32.08-67.1-102.57-30.79-150.61,31.65-41.89,99.38-53.81,149.61-40.81,32.79,8.49,59.15,28.71,75.87,57.74,8.55,14.84,13.69,30.31,18.46,46.77l8.88,30.63c5.16,17.8,22.33,27.32,40.87,26.23,44.77-2.62,66.88-47.73,60.64-92.28-2.14-15.25-7.44-28.84-13.72-42.79-4.17-9.28-3.48-21.47,1.14-23.26,12.02-4.66,53.39,51.75,41.53,115.78-8.3,44.79-42.37,77.12-87.32,83.29-31.14,4.28-60.52-3.59-87.61-19.27-8.11-4.7-18.22-7.39-27.17-1.63l31.6,18.17c-46.43,18.44-63.38,75.97-65.14,122.28-1.71,45.16,7.49,88.89,25.81,129.86.53,1.19,1.06,4.12.79,5.19-1.49,5.94-48.03,20.6-67.61,20.4-6.45-32.86-17.79-64.36-37.03-90.18,12.3,29.42,20.86,56.99,21.81,88.61-13.64,2.39-27.87,1.9-40.77-3.19,15.32-35.09,25-76.61,1.65-107.48ZM677.46,271.89c-13.19,13.36-27.84,10.74-40.23-.44.7,11.6,11.54,17.92,21.53,17.41,8.55-.43,19.34-6.84,18.7-16.97Z"/>
  <path class="st2" d="M416.11,638.35c5.02,10.88-34.9,9.75-55.75,6.46,1.23-21.27,6.05-41.12,13.58-60.85,8.75-20.41,19.74-39.59,38.58-54.4-14.09,37.52-13.47,71.83,3.59,108.79Z"/>
  <polygon class="st3" fill="#C8A45A" points="818.49 153.28 809.92 109.23 781.33 128.86 801.53 99.77 759.78 91.38 801.14 83 781.19 54.36 809.92 73.66 818.41 29.21 826.85 74.03 856.09 53.9 835.59 82.76 877.52 91.23 835.95 99.93 855.99 128.87 826.94 109 818.49 153.28"/>
  <circle class="st3" fill="#C8A45A" cx="818.45" cy="4.57" r="4.57"/>
  <circle class="st3" fill="#C8A45A" cx="741.85" cy="91.22" r="4.6"/>
  <circle class="st3" fill="#C8A45A" cx="894.89" cy="91.3" r="4.61"/>
  <path class="st0" d="M677.46,271.89c.64,10.13-10.15,16.54-18.7,16.97-9.99.51-20.83-5.81-21.53-17.41,12.39,11.18,27.04,13.79,40.23.44Z"/>
  <g>
    <path class="st1" d="M99.02,691.61c1.32,1.27,2.66,2.72,4.04,4.35,1.37,1.63,2.65,3.27,3.83,4.94,1.18,1.67,2.24,3.21,3.17,4.63.93,1.43,1.58,2.61,1.94,3.56l-12.46,12.89-1.11-1.08c3.59-3.72,5.06-7.95,4.4-12.71-.66-4.76-2.93-9.01-6.8-12.75-4.53-4.38-9.49-6.59-14.87-6.62-5.38-.04-9.8,1.73-13.24,5.29-1.42,1.47-2.74,3.53-3.94,6.18-1.21,2.65-1.69,5.74-1.44,9.28l3.92,44.67c.38,4.56-.22,8.47-1.79,11.75-1.57,3.27-3.48,6.07-5.72,8.39-6.21,6.43-13.34,9.64-21.39,9.64-8.05,0-15.62-3.42-22.71-10.26-1.98-1.91-4.12-4.36-6.42-7.33-2.3-2.98-4.25-6.16-5.82-9.56-1.58-3.4-2.44-6.66-2.59-9.81.95-1.48,2.32-3.14,4.12-5,1.8-1.86,3.85-3.65,6.16-5.39,2.31-1.73,4.58-3.17,6.8-4.32l1.11,1.08c-4.23,3.55-7.02,7.51-8.38,11.89-1.36,4.38-1.35,8.69.03,12.95,1.38,4.26,3.96,8.06,7.74,11.41,4.75,4.15,10.09,6.42,16,6.82,5.91.4,11.11-1.73,15.6-6.37,2.17-2.24,3.72-4.68,4.66-7.29.93-2.61,1.25-5.34.96-8.17l-3.75-43.6c-.38-4.56.19-8.61,1.71-12.16,1.52-3.55,3.36-6.44,5.53-8.69,3.14-3.25,7-5.59,11.56-7.02,4.57-1.43,9.39-1.52,14.48-.27,5.09,1.25,9.98,4.14,14.68,8.68ZM113.34,707.71l-2.36,2.44-9.39-9.08,2.36-2.44,9.39,9.08Z"/>
    <path class="st1" d="M82.59,815.36l-6.36,9.93-11.58-7.42.87-1.36,1.88,1.21c2.51,1.61,5.19,2.14,8.05,1.61,2.86-.53,5.09-1.95,6.7-4.24l.43.28ZM146.17,735.84l-60.98,95.2-9.41-6.03,60.98-95.2,9.41,6.03ZM91.13,820.83l.43.28c-1.42,2.42-1.77,5.04-1.05,7.86.71,2.82,2.32,5.03,4.83,6.64,1.16.74,1.78,1.14,1.88,1.2l-.87,1.36-11.58-7.42,6.36-9.93ZM177.14,820.69l-2.61,4.08-61.94-39.68,2.61-4.08,61.94,39.68ZM130.84,740.02l-.43-.28c1.41-2.42,1.76-5.04,1.05-7.86-.71-2.82-2.32-5.04-4.83-6.64l-1.88-1.2.87-1.36,11.58,7.42-6.36,9.93ZM151.19,859.3l-6.36,9.93-11.58-7.42.87-1.36c.1.06.72.46,1.88,1.2,2.51,1.61,5.21,2.16,8.12,1.66,2.91-.5,5.12-1.93,6.63-4.29l.43.28ZM139.38,745.49l6.36-9.93,11.58,7.42-.87,1.36c-.1-.06-.72-.46-1.88-1.2-2.51-1.61-5.19-2.14-8.05-1.61-2.86.53-5.09,1.95-6.7,4.24l-.43-.28ZM214.78,779.78l-60.98,95.2-9.41-6.03,60.98-95.2,9.41,6.03ZM159.72,864.77l.43.28c-1.42,2.42-1.77,5.04-1.05,7.86.71,2.82,2.32,5.03,4.83,6.64l1.88,1.2-.87,1.36-11.58-7.42,6.36-9.93ZM199.44,783.95l-.43-.28c1.51-2.36,1.88-4.96,1.13-7.81-.76-2.85-2.39-5.08-4.9-6.69-1.16-.74-1.79-1.14-1.88-1.2l.87-1.36,11.58,7.42-6.36,9.93ZM207.98,789.42l6.36-9.93,11.58,7.42-.87,1.36-1.88-1.21c-2.51-1.61-5.19-2.14-8.05-1.61-2.86.53-5.09,1.95-6.7,4.24l-.43-.28Z"/>
    <path class="st1" d="M293.14,808.6c11.6,3.96,21,9.77,28.2,17.4,7.2,7.64,11.83,16.48,13.92,26.52,2.08,10.04,1.22,20.61-2.57,31.72-3.8,11.1-9.59,19.99-17.38,26.66-7.79,6.67-16.86,10.82-27.23,12.45-10.37,1.64-21.35.47-32.95-3.49-11.49-3.93-20.84-9.71-28.04-17.34-7.2-7.64-11.84-16.48-13.91-26.52-2.08-10.04-1.22-20.61,2.57-31.72,3.79-11.1,9.59-19.99,17.38-26.66,7.79-6.67,16.86-10.82,27.23-12.46,10.37-1.63,21.29-.49,32.79,3.44ZM256.69,915.27c9.21,3.15,18,3.76,26.34,1.83,8.35-1.93,15.75-6.05,22.21-12.38,6.46-6.33,11.43-14.58,14.91-24.77,3.48-10.19,4.6-19.76,3.36-28.72s-4.57-16.75-9.99-23.38c-5.42-6.63-12.74-11.52-21.96-14.67-9.11-3.11-17.84-3.7-26.18-1.78-8.35,1.93-15.75,6.05-22.21,12.38-6.46,6.33-11.43,14.58-14.91,24.77-3.48,10.19-4.6,19.76-3.36,28.72,1.24,8.96,4.57,16.75,9.99,23.38,5.42,6.63,12.69,11.5,21.8,14.62Z"/>
    <path class="st1" d="M423,835.46c12.21,1.06,22.73,4.43,31.56,10.11,8.82,5.68,15.45,13.15,19.88,22.39,4.43,9.25,6.14,19.72,5.13,31.41-1.01,11.69-4.5,21.71-10.46,30.06-5.96,8.35-13.77,14.56-23.44,18.64-9.67,4.08-20.61,5.59-32.83,4.53-12.1-1.05-22.56-4.41-31.38-10.1-8.82-5.68-15.45-13.15-19.88-22.39-4.43-9.25-6.14-19.71-5.13-31.41,1.01-11.69,4.5-21.71,10.46-30.06,5.96-8.34,13.77-14.56,23.44-18.64,9.67-4.08,20.55-5.59,32.65-4.55ZM413.27,947.77c9.7.84,18.37-.68,26.01-4.55,7.64-3.88,13.83-9.66,18.58-17.36,4.75-7.69,7.59-16.9,8.52-27.63.93-10.73-.28-20.29-3.64-28.68-3.36-8.4-8.46-15.16-15.32-20.29-6.86-5.13-15.14-8.12-24.84-8.96-9.59-.83-18.2.69-25.84,4.57-7.64,3.88-13.84,9.66-18.58,17.36-4.75,7.69-7.59,16.9-8.52,27.63-.93,10.73.28,20.29,3.64,28.68,3.35,8.39,8.46,15.16,15.32,20.29,6.86,5.13,15.08,8.12,24.67,8.95Z"/>
    <path class="st1" d="M527.82,834.47c1.82-.18,3.8-.27,5.93-.26,2.13,0,4.21.1,6.24.28,2.03.18,3.89.37,5.58.59,1.69.21,3.01.49,3.97.82l1.76,17.84-1.54.15c-.51-5.14-2.79-9-6.84-11.58-4.05-2.57-8.76-3.6-14.12-3.07-6.27.62-11.16,2.97-14.67,7.05-3.51,4.08-5.02,8.59-4.54,13.51.2,2.04.92,4.37,2.16,7.01,1.24,2.64,3.29,5.01,6.14,7.1l36.58,25.93c3.72,2.66,6.31,5.65,7.79,8.97,1.48,3.32,2.38,6.58,2.69,9.79.88,8.9-1.29,16.41-6.5,22.55-5.21,6.14-12.72,9.69-22.52,10.66-2.74.27-5.99.32-9.74.15-3.76-.17-7.44-.75-11.05-1.75-3.61-.99-6.66-2.45-9.15-4.37-.51-1.68-.89-3.81-1.15-6.38-.25-2.57-.29-5.3-.12-8.19.18-2.88.55-5.54,1.11-7.98l1.54-.15c-.03,5.52,1.18,10.22,3.64,14.08,2.46,3.87,5.75,6.66,9.89,8.36,4.14,1.7,8.71,2.2,13.7,1.49,6.24-.94,11.42-3.53,15.55-7.78,4.13-4.25,5.88-9.59,5.24-16.02-.31-3.11-1.16-5.86-2.54-8.27-1.39-2.4-3.26-4.41-5.6-6.02l-35.66-25.37c-3.72-2.66-6.44-5.72-8.16-9.17-1.72-3.45-2.74-6.73-3.04-9.84-.44-4.5.27-8.95,2.14-13.36,1.87-4.4,4.92-8.14,9.17-11.21,4.24-3.07,9.62-4.92,16.12-5.57ZM549.36,833.97l.33,3.38-13,1.28-.33-3.37,13-1.28Z"/>
    <path class="st1" d="M585.68,841.67l-.49.15c-.9-2.65-2.64-4.64-5.23-5.96-2.6-1.32-5.32-1.56-8.18-.72l-2.14.63-.45-1.55,13.2-3.86,3.31,11.31ZM592.59,827.36l31.75,108.5-10.72,3.14-31.74-108.5,10.72-3.14ZM595.41,838.82l-3.31-11.32,13.2-3.86.45,1.55c-.11.03-.82.24-2.14.63-2.86.84-5.03,2.51-6.5,5.01-1.48,2.51-1.88,5.12-1.2,7.84l-.5.15ZM610.8,927.54l3.31,11.32-13.2,3.86-.45-1.55,2.15-.63c2.86-.84,5.02-2.51,6.5-5.01,1.47-2.51,1.87-5.12,1.2-7.84l.49-.15ZM676.92,859.73l1.36,4.65-70.6,20.66-1.36-4.65,70.6-20.66ZM620.53,924.69l.5-.15c.89,2.66,2.64,4.64,5.23,5.96,2.59,1.32,5.32,1.56,8.18.72,1.32-.38,2.03-.59,2.14-.63l.45,1.55-13.2,3.86-3.31-11.31ZM663.87,818.79l-.5.14c-.79-2.69-2.51-4.68-5.15-5.98-2.65-1.3-5.4-1.53-8.26-.7-1.32.39-2.04.6-2.14.63l-.45-1.55,13.2-3.86,3.31,11.32ZM670.78,804.48l31.75,108.5-10.72,3.14-31.75-108.5,10.72-3.14ZM673.6,815.94l-3.31-11.31,13.2-3.86.45,1.55-2.15.63c-2.86.84-5.03,2.51-6.5,5.02-1.48,2.51-1.88,5.12-1.2,7.84l-.5.14ZM688.99,904.66l3.31,11.31-13.2,3.86-.45-1.55c.11-.03.82-.24,2.15-.63,2.86-.84,5.05-2.51,6.58-5.04,1.53-2.52,1.9-5.13,1.12-7.81l.5-.14ZM698.72,901.82l.5-.14c.89,2.66,2.64,4.64,5.23,5.96,2.59,1.32,5.32,1.56,8.18.72l2.14-.63.45,1.55-13.2,3.86-3.31-11.32Z"/>
    <path class="st1" d="M709.55,785.51l1.47-.89,7.87,6.38,46.05,95.77-7.94,4.8-47.45-106.06ZM711.02,784.62l94.41,60.5,5.39,16.56-93.24-59.88-6.56-17.17ZM755.32,878.81l6.1,10.09-16.33,9.87-.84-1.38c.1-.06.88-.53,2.35-1.42,2.65-1.6,4.54-3.78,5.68-6.55s1.07-5.65-.21-8.65l3.23-1.96ZM760.92,878.45c.06.09.11.19.17.28s.14.23.25.41c.89,1.47,2.28,2.49,4.15,3.05,1.88.56,3.6.37,5.17-.58l2.21-1.33.75,1.24-8.97,5.43-4.76-7.88,1.03-.62ZM793.53,734.74l72.31,91.03-11.47,6.94-58.72-78.86-3.44-18.31,1.32-.8ZM792.21,735.54l6.77,8.55,9.79,99.58c.42,4.02.9,7.36,1.42,9.99.53,2.64,1.23,5.02,2.1,7.13l-1.47.89-7.32-7.46-11.29-118.67ZM848.87,825.27l1.03-.62,4.76,7.88-8.97,5.43-.75-1.24,2.21-1.33c1.67-1.01,2.66-2.46,2.99-4.36.33-1.9.05-3.58-.85-5.05-.11-.18-.19-.32-.25-.42-.06-.09-.11-.18-.17-.28ZM855.33,818.35l3.09-1.87c2.16,2.47,4.73,3.84,7.71,4.12,2.98.28,5.74-.36,8.29-1.9l2.35-1.42.84,1.38-16.18,9.78-6.1-10.09Z"/>
    <path class="st1" d="M853.45,679.42l9.17,6.79,43.94,103.19-7.2,7.38-39.52-100.08c-1.04-2.78-1.96-5.16-2.75-7.13-.79-1.97-1.61-3.82-2.48-5.55-.87-1.73-1.61-2.9-2.23-3.5l1.08-1.11ZM853.45,679.42l117.35,43.48-10.21,10.45-98.57-40.75-8.58-13.18ZM921.34,711.83l3.47,3.38-37.58,38.49-3.47-3.38,37.58-38.49ZM901.71,778.18c.98,2.08,2.21,3.44,3.69,4.08,1.48.64,2.97.78,4.47.4,1.5-.38,2.73-1.06,3.69-2.04l1.08-1.11,1.16,1.13-24.13,24.72-1.16-1.13,1.08-1.11c1.84-1.89,3.18-4.38,4.03-7.48.85-3.1.6-6.58-.74-10.45l6.84-7.01ZM949.85,728.86l9.85-10.08c3.82,1.33,7.29,1.51,10.41.55,3.12-.96,5.6-2.38,7.44-4.27l.96-.98,1.16,1.13-27.01,27.67-1.16-1.13,1.08-1.11c1.52-1.56,2.25-3.57,2.18-6.04-.07-2.47-1.7-4.38-4.89-5.74Z"/>
  </g>
</svg>