<?xml version="1.0" encoding="UTF-8"?>
<svg id="Layer_1" xmlns="http://www.w3.org/2000/svg" version="1.1" viewBox="0 0 979.66 952.92">
  <!-- Generator: Adobe Illustrator 30.5.1, SVG Export Plug-In . SVG Version: 2.1.4 Build 3)  -->
  <defs>
    <style>
      .st0 {
        fill: #0E3D3D;
      }

      .st1 {
        fill: #F7F4ED;
      }

      .st2 {
        fill: #F7F4ED;
      }

      .st3 {
        fill: #F7F4ED;
      }
    </style>
  </defs>
  <path class="st3" d="M823.02,4.57c0-2.52-2.04-4.57-4.57-4.57s-4.57,2.04-4.57,4.57,2.04,4.57,4.57,4.57,4.57-2.04,4.57-4.57ZM818.49,153.28l8.45-44.28,29.05,19.87-20.05-28.94,41.57-8.7-41.93-8.48,20.51-28.86-29.25,20.13-8.43-44.82-8.49,44.45-28.73-19.3,19.95,28.64-41.37,8.38,41.75,8.39-20.2,29.09,28.59-19.63,8.58,44.04ZM746.44,91.22c0-2.54-2.06-4.6-4.6-4.6s-4.6,2.06-4.6,4.6,2.06,4.6,4.6,4.6,4.6-2.06,4.6-4.6ZM899.5,91.3c0-2.55-2.06-4.61-4.61-4.61s-4.61,2.06-4.61,4.61,2.06,4.61,4.61,4.61,4.61-2.06,4.61-4.61ZM527.72,534.15c23.35,30.86,13.66,72.39-1.65,107.48,12.9,5.09,27.13,5.58,40.77,3.19-.95-31.62-9.51-59.19-21.81-88.61,19.24,25.83,30.58,57.32,37.03,90.18,19.58.2,66.12-14.46,67.61-20.4.27-1.07-.25-4-.79-5.19-18.32-40.97-27.52-84.7-25.81-129.86,1.76-46.31,18.71-103.85,65.14-122.28l-31.6-18.17c8.95-5.75,19.05-3.06,27.17,1.63,27.09,15.68,56.47,23.55,87.61,19.27,44.95-6.17,79.02-38.5,87.32-83.29,11.87-64.03-29.51-120.44-41.53-115.78-4.62,1.79-5.32,13.99-1.14,23.26,6.28,13.95,11.58,27.54,13.72,42.79,6.24,44.55-15.87,89.65-60.64,92.28-18.54,1.09-35.71-8.43-40.87-26.23l-8.88-30.63c-4.77-16.46-9.91-31.93-18.46-46.77-16.72-29.02-43.08-49.25-75.87-57.74-50.23-13-117.96-1.08-149.61,40.81-36.31,48.05-15.63,118.53,30.79,150.61l36.91,25.51c13.28,9.18,24.51,19.48,34.53,33.36,24.11-38.64,28.05-85.58,10.9-126.82-5.82-14-14.38-24.71-24.03-37.02,8.18,2.01,13.64,8.01,18.48,14.12,38.07,48.11,34.4,123.27-5.55,171.22-9.21-14.54-18.16-27.27-31.5-36.43l-34.5-23.69c-37.85-25.12-64.14-59.37-66.95-106.66-41.6,6.88-79.56,24.65-108.32,54.7-23.53,24.59-40.56,53.31-52.33,85.29-10.62,28.87-19.07,59.83-15.04,91.29,7.85-26.59,10.51-51.48,28.37-72.55l-1.67,49.34c-.65,19.19-.15,37.54-2.08,56.6-2.91,28.59-13.24,53.62-29.84,78.23,24.67,14.91,49.74,24.17,76.94,28.98,2.99.53,5.53-3.88,5.88-6.44,6.99-49.73,35.91-103.04,80.16-126.67,34.43-18.38,77-10.8,101.13,21.09ZM416.11,638.35c-17.06-36.96-17.68-71.26-3.59-108.79-18.83,14.81-29.82,33.99-38.58,54.4-7.53,19.73-12.34,39.58-13.58,60.85,20.85,3.28,60.77,4.41,55.75-6.46Z"/>
  <path class="st2" d="M527.72,534.15c-24.13-31.89-66.71-39.47-101.13-21.09-44.26,23.63-73.18,76.94-80.16,126.67-.36,2.55-2.9,6.97-5.88,6.44-27.2-4.8-52.27-14.07-76.94-28.98,16.6-24.61,26.94-49.64,29.84-78.23,1.94-19.06,1.43-37.41,2.08-56.6l1.67-49.34c-17.86,21.07-20.52,45.96-28.37,72.55-4.03-31.46,4.42-62.42,15.04-91.29,11.77-31.98,28.79-60.7,52.33-85.29,28.76-30.05,66.72-47.82,108.32-54.7,2.81,47.29,29.1,81.54,66.95,106.66l34.5,23.69c13.34,9.16,22.29,21.89,31.5,36.43,39.95-47.95,43.62-123.12,5.55-171.22-4.83-6.11-10.29-12.11-18.48-14.12,9.65,12.31,18.2,23.02,24.03,37.02,17.15,41.24,13.21,88.18-10.9,126.82-10.02-13.88-21.25-24.18-34.53-33.36l-36.91-25.51c-46.43-32.08-67.1-102.57-30.79-150.61,31.65-41.89,99.38-53.81,149.61-40.81,32.79,8.49,59.15,28.71,75.87,57.74,8.55,14.84,13.69,30.31,18.46,46.77l8.88,30.63c5.16,17.8,22.33,27.32,40.87,26.23,44.77-2.62,66.88-47.73,60.64-92.28-2.14-15.25-7.44-28.84-13.72-42.79-4.17-9.28-3.48-21.47,1.14-23.26,12.02-4.66,53.39,51.75,41.53,115.78-8.3,44.79-42.37,77.12-87.32,83.29-31.14,4.28-60.52-3.59-87.61-19.27-8.11-4.7-18.22-7.39-27.17-1.63l31.6,18.17c-46.43,18.44-63.38,75.97-65.14,122.28-1.71,45.16,7.49,88.89,25.81,129.86.53,1.19,1.06,4.12.79,5.19-1.49,5.94-48.03,20.6-67.61,20.4-6.45-32.86-17.79-64.36-37.03-90.18,12.3,29.42,20.86,56.99,21.81,88.61-13.64,2.39-27.87,1.9-40.77-3.19,15.32-35.09,25-76.61,1.65-107.48ZM677.46,271.89c-13.19,13.36-27.84,10.74-40.23-.44.7,11.6,11.54,17.92,21.53,17.41,8.55-.43,19.34-6.84,18.7-16.97Z"/>
  <path class="st2" d="M416.11,638.35c5.02,10.88-34.9,9.75-55.75,6.46,1.23-21.27,6.05-41.12,13.58-60.85,8.75-20.41,19.74-39.59,38.58-54.4-14.09,37.52-13.47,71.83,3.59,108.79Z"/>
  <polygon class="st3" fill="#C8A45A" points="818.49 153.28 809.92 109.23 781.33 128.86 801.53 99.77 759.78 91.38 801.14 83 781.19 54.36 809.92 73.66 818.41 29.21 826.85 74.03 856.09 53.9 835.59 82.76 877.52 91.23 835.95 99.93 855.99 128.87 826.94 109 818.49 153.28"/>
  <circle class="st3" fill="#C8A45A" cx="818.45" cy="4.57" r="4.57"/>
  <circle class="st3" fill="#C8A45A" cx="741.85" cy="91.22" r="4.6"/>
  <circle class="st3" fill="#C8A45A" cx="894.89" cy="91.3" r="4.61"/>
  <path class="st0" d="M677.46,271.89c.64,10.13-10.15,16.54-18.7,16.97-9.99.51-20.83-5.81-21.53-17.41,12.39,11.18,27.04,13.79,40.23.44Z"/>
  
</svg>